Coordinates
version=1
nRows=19
nColumns=34
inDegrees=no

Units are S.I. units (second, meters, Newtons, ...)
If the header above contains a line with 'inDegrees', this indicates whether rotational values are in degrees (yes) or radians (no).

endheader
time	pelvis_tilt	pelvis_list	pelvis_rotation	pelvis_tx	pelvis_ty	pelvis_tz	hip_flexion_r	hip_adduction_r	hip_rotation_r	knee_angle_r	ankle_angle_r	subtalar_angle_r	mtp_angle_r	hip_flexion_l	hip_adduction_l	hip_rotation_l	knee_angle_l	ankle_angle_l	subtalar_angle_l	mtp_angle_l	lumbar_extension	lumbar_bending	lumbar_rotation	arm_flex_r	arm_add_r	arm_rot_r	elbow_flex_r	pro_sup_r	arm_flex_l	arm_add_l	arm_rot_l	elbow_flex_l	pro_sup_l
3.28	-0.505692	-0.057609	-0.111015	-0.337795	0.717436	-0.61109	1.57249	-0.163169	-0.059725	1.60187	0.57571	-0.0794211	-0.117831	1.64728	-0.444968	0.131881	1.61794	0.574751	0.0456039	-0.117832	-0.291952	0.15482	0.0622229	-0.0461826	-0.247394	-0.280388	1.28662	1.50138	-0.0666966	-0.189618	-0.237684	1.0985	1.38375
3.29	-0.504483	-0.0590745	-0.11208	-0.338694	0.713811	-0.611432	1.57902	-0.163765	-0.0596269	1.61182	0.577792	-0.0779726	-0.117831	1.65565	-0.443297	0.139257	1.62868	0.575982	0.042969	-0.117832	-0.299244	0.156979	0.0631248	-0.0436357	-0.246041	-0.280446	1.28844	1.49926	-0.0622385	-0.191494	-0.237814	1.09832	1.38065
3.3	-0.503198	-0.0603339	-0.112997	-0.339546	0.710377	-0.611756	1.58512	-0.164846	-0.059754	1.62126	0.579856	-0.075924	-0.117831	1.66336	-0.442046	0.145716	1.63873	0.577162	0.041176	-0.117832	-0.306473	0.15893	0.0641402	-0.0412464	-0.24458	-0.280424	1.29041	1.49749	-0.0573928	-0.193609	-0.237431	1.09765	1.37839
3.31	-0.501829	-0.061289	-0.113808	-0.340349	0.707142	-0.612059	1.59079	-0.166367	-0.0599832	1.63017	0.581921	-0.0732898	-0.117831	1.67034	-0.441268	0.151139	1.64807	0.578335	0.0402127	-0.117832	-0.313617	0.160574	0.0652764	-0.0390062	-0.243036	-0.280321	1.29249	1.49586	-0.0522906	-0.195924	-0.236601	1.09674	1.3767
3.32	-0.500386	-0.0618662	-0.114541	-0.341104	0.704115	-0.61234	1.59604	-0.168243	-0.0601787	1.63852	0.583981	-0.0701594	-0.117831	1.67655	-0.440975	0.15546	1.65669	0.579527	0.0400279	-0.117832	-0.32065	0.161843	0.0665037	-0.0368667	-0.241442	-0.280107	1.29458	1.49431	-0.0470966	-0.198401	-0.235431	1.09584	1.37541
3.33	-0.498894	-0.0620148	-0.11521	-0.341811	0.701299	-0.612597	1.60091	-0.170359	-0.060199	1.6463	0.586012	-0.0666859	-0.117831	1.68197	-0.441128	0.158669	1.66459	0.580745	0.0405289	-0.117832	-0.32753	0.162693	0.0677607	-0.0347563	-0.239837	-0.279732	1.29655	1.49291	-0.0419914	-0.201009	-0.234058	1.09518	1.37448
3.34	-0.497387	-0.061705	-0.11581	-0.342474	0.698696	-0.612829	1.60545	-0.172593	-0.0599119	1.65348	0.587975	-0.063058	-0.117831	1.68664	-0.44164	0.160803	1.67177	0.581969	0.0415829	-0.117832	-0.33421	0.163109	0.0689666	-0.0326039	-0.23826	-0.279136	1.29827	1.4917	-0.0371468	-0.203724	-0.23262	1.09496	1.37383
3.35	-0.495905	-0.0609295	-0.116324	-0.343097	0.696305	-0.613036	1.6097	-0.174835	-0.0592111	1.66007	0.589827	-0.0594707	-0.117831	1.69059	-0.442389	0.161941	1.67825	0.583165	0.0430256	-0.117832	-0.340634	0.16309	0.0700413	-0.0303629	-0.236757	-0.278265	1.29965	1.49067	-0.0327015	-0.206532	-0.231238	1.0953	1.37336
3.36	-0.494486	-0.0597053	-0.116726	-0.343682	0.694119	-0.613216	1.61371	-0.176985	-0.0580277	1.66608	0.591522	-0.056108	-0.117831	1.69387	-0.443241	0.162201	1.68405	0.584287	0.0446794	-0.117832	-0.346748	0.162657	0.0709277	-0.0280275	-0.235383	-0.277082	1.30063	1.48983	-0.0287434	-0.20942	-0.229998	1.09627	1.37297
3.37	-0.493157	-0.0580745	-0.116996	-0.344232	0.692131	-0.613369	1.61752	-0.178957	-0.0563339	1.67154	0.593017	-0.0531367	-0.117831	1.69656	-0.444067	0.161728	1.68921	0.585289	0.0463724	-0.117832	-0.352505	0.161844	0.0716072	-0.025637	-0.234205	-0.275571	1.30124	1.48913	-0.0253044	-0.212372	-0.228949	1.09784	1.37255
3.38	-0.49194	-0.0561041	-0.117123	-0.344747	0.690332	-0.613494	1.62118	-0.180672	-0.0541421	1.6765	0.594274	-0.0507016	-0.117831	1.69873	-0.444763	0.160691	1.69376	0.586134	0.0479561	-0.117832	-0.357871	0.160708	0.0721019	-0.0232679	-0.233298	-0.273742	1.30157	1.48856	-0.0223629	-0.215356	-0.228111	1.09991	1.37201
3.39	-0.490843	-0.0538819	-0.117105	-0.345228	0.688711	-0.613589	1.62467	-0.182067	-0.0515015	1.68098	0.595263	-0.0489179	-0.117831	1.70044	-0.445254	0.159262	1.69774	0.586794	0.0493157	-0.117832	-0.362824	0.159319	0.072466	-0.0210157	-0.232737	-0.271644	1.30172	1.48813	-0.0198545	-0.218323	-0.227488	1.10233	1.37128
3.4	-0.489866	-0.0515095	-0.116946	-0.345672	0.68726	-0.613655	1.62799	-0.183097	-0.0484911	1.68503	0.595967	-0.0478647	-0.117831	1.70178	-0.445491	0.157615	1.70121	0.587258	0.0503752	-0.117832	-0.367359	0.157762	0.0727701	-0.018972	-0.232579	-0.269361	1.30184	1.48785	-0.0176882	-0.221202	-0.227083	1.10492	1.37032
3.41	-0.489	-0.0490916	-0.116653	-0.346079	0.685967	-0.613692	1.63112	-0.183741	-0.0452081	1.68868	0.596385	-0.0475812	-0.117831	1.70281	-0.445446	0.155905	1.7042	0.587526	0.0510943	-0.117832	-0.371485	0.156127	0.073081	-0.0172039	-0.232853	-0.267004	1.30207	1.48777	-0.0157673	-0.223907	-0.226916	1.10749	1.36914
3.42	-0.488228	-0.0467245	-0.116225	-0.346447	0.684825	-0.613704	1.63401	-0.184011	-0.0417556	1.69195	0.596534	-0.0480623	-0.117831	1.70357	-0.445099	0.154261	1.70676	0.587615	0.0514617	-0.117832	-0.37522	0.1545	0.0734413	-0.0157416	-0.233557	-0.264686	1.30248	1.48792	-0.014009	-0.226348	-0.227028	1.10989	1.36774
3.43	-0.487532	-0.0444892	-0.115654	-0.346774	0.683824	-0.613693	1.63663	-0.18395	-0.0382334	1.69487	0.596453	-0.0492577	-0.117831	1.7041	-0.444437	0.152779	1.70893	0.587549	0.0514883	-0.117832	-0.378584	0.152957	0.0738573	-0.0145795	-0.234659	-0.262508	1.30313	1.48828	-0.0123568	-0.228436	-0.227476	1.112	1.36612
3.44	-0.486899	-0.0424516	-0.114924	-0.347058	0.682956	-0.613666	1.63895	-0.183625	-0.0347361	1.69748	0.59619	-0.0510782	-0.117831	1.70443	-0.443451	0.151527	1.71073	0.587359	0.0512044	-0.117832	-0.381596	0.151561	0.074306	-0.013685	-0.236098	-0.260548	1.304	1.48882	-0.0107853	-0.230093	-0.228321	1.11374	1.3643
3.45	-0.486324	-0.0406639	-0.114031	-0.3473	0.68221	-0.613624	1.64095	-0.183106	-0.031352	1.69979	0.595797	-0.0534112	-0.117831	1.70463	-0.442156	0.150551	1.7122	0.587078	0.0506608	-0.117832	-0.384264	0.15036	0.074753	-0.0130121	-0.23779	-0.258874	1.30506	1.48946	-0.00929564	-0.231262	-0.229603	1.11506	1.36237
3.46	-0.485812	-0.0391662	-0.112981	-0.347498	0.681575	-0.61357	1.64265	-0.182447	-0.0281613	1.70184	0.595323	-0.0561378	-0.117831	1.70473	-0.440598	0.149877	1.71337	0.58674	0.0499295	-0.117832	-0.38659	0.149387	0.0751708	-0.0125107	-0.239633	-0.257554	1.30625	1.49008	-0.00790694	-0.231913	-0.231325	1.11594	1.36044
